<?xml version="1.0" standalone="no"?>
<!DOCTYPE svg PUBLIC "-//W3C//DTD SVG 20010904//EN"
 "http://www.w3.org/TR/2001/REC-SVG-20010904/DTD/svg10.dtd">
<svg version="1.0" xmlns="http://www.w3.org/2000/svg"
 width="295.000000pt" height="117.000000pt" viewBox="0 0 295.000000 117.000000"
 preserveAspectRatio="xMidYMid meet">

<g transform="translate(0.000000,117.000000) scale(0.100000,-0.100000)"
fill="#000000" stroke="none">
<path d="M1679 905 c30 -14 56 -23 59 -20 3 3 0 5 -7 5 -7 0 -10 4 -7 9 3 5
-14 14 -39 20 -65 16 -66 14 -6 -14z"/>
<path d="M1226 843 c-3 -10 -9 -24 -12 -30 -4 -8 2 -13 16 -13 13 0 20 5 17
13 -2 6 2 20 11 30 14 15 13 17 -5 17 -11 0 -23 -8 -27 -17z"/>
<path d="M1384 831 c21 -23 20 -41 -1 -42 -10 0 48 -17 128 -38 80 -21 154
-41 165 -44 18 -7 18 -6 -1 9 -32 25 -206 106 -258 120 -47 12 -48 12 -33 -5z"/>
<path d="M1869 797 c26 -28 31 -32 31 -19 0 4 -13 16 -28 26 l-27 19 24 -26z"/>
<path d="M1910 769 c0 -4 10 -28 21 -54 27 -61 22 -120 -15 -176 -38 -56 -91
-79 -186 -79 -99 0 -150 15 -300 88 -69 33 -138 64 -153 68 -51 12 -23 29 49
29 57 0 80 -5 124 -28 66 -34 46 -11 -25 30 -46 26 -58 28 -152 28 -169 0
-165 -33 14 -115 116 -53 270 -137 348 -189 189 -128 349 -145 520 -58 28 14
78 30 110 37 80 15 182 -5 265 -54 34 -20 73 -38 88 -41 22 -5 20 -2 -12 14
-21 11 -63 41 -94 67 -31 25 -75 55 -97 66 -55 29 -150 35 -211 14 -56 -19
-168 -22 -162 -4 2 6 22 16 44 23 21 6 59 23 84 36 25 13 59 29 75 36 45 17 3
16 -65 -2 -64 -17 -110 -19 -110 -5 0 6 6 10 14 10 8 0 49 18 93 41 75 40 81
41 155 37 55 -3 89 -11 125 -29 26 -14 71 -37 98 -51 28 -14 66 -29 85 -33 28
-6 21 0 -33 29 -38 19 -90 50 -115 69 -69 48 -109 62 -182 61 -47 -1 -83 -8
-127 -27 -101 -43 -186 -33 -198 25 -4 16 -12 39 -19 51 -21 40 -56 92 -56 86z"/>
<path d="M863 600 c0 -47 2 -66 4 -42 2 23 2 61 0 85 -2 23 -4 4 -4 -43z"/>
<path d="M122 583 c1 -64 2 -68 5 -25 5 63 19 64 42 5 9 -23 19 -44 23 -48 3
-4 19 19 35 52 l28 58 6 -55 6 -55 1 73 c1 39 -1 72 -6 72 -4 0 -20 -28 -36
-62 l-28 -63 -29 63 c-16 34 -34 62 -39 62 -6 0 -9 -31 -8 -77z"/>
<path d="M752 583 c1 -46 3 -61 5 -36 4 36 7 42 31 46 l27 4 -27 2 c-23 1 -28
6 -28 25 0 15 7 26 18 29 13 4 11 5 -5 6 -22 1 -23 -2 -21 -76z"/>
<path d="M326 604 c-23 -23 -18 -84 6 -84 6 0 6 6 -2 14 -16 20 -9 56 13 70
37 23 75 -35 45 -71 -11 -14 -11 -15 2 -11 23 7 26 69 4 85 -24 17 -49 16 -68
-3z"/>
<path d="M636 604 c-34 -34 -11 -94 36 -94 7 0 2 6 -12 13 -41 21 -32 87 12
87 10 0 23 -10 28 -22 5 -14 9 -17 9 -7 2 36 -45 51 -73 23z"/>
<path d="M442 605 c23 -77 48 -105 63 -67 5 14 4 15 -7 4 -10 -10 -17 -4 -36
30 -12 24 -21 39 -20 33z"/>
<path d="M525 599 c-4 -6 -5 -12 -2 -15 2 -3 7 2 10 11 7 17 1 20 -8 4z"/>
<path d="M573 565 c0 -27 2 -38 4 -22 2 15 2 37 0 50 -2 12 -4 0 -4 -28z"/>
<path d="M983 594 c9 -11 17 -24 17 -29 0 -5 -8 -18 -17 -29 -18 -21 -18 -21
5 -2 22 19 22 19 44 0 l21 -19 -18 28 c-17 27 -17 28 1 50 l19 22 -22 -19
c-23 -19 -23 -19 -45 0 -23 19 -23 19 -5 -2z"/>
<path d="M2658 243 c7 -3 16 -2 19 1 4 3 -2 6 -13 5 -11 0 -14 -3 -6 -6z"/>
</g>
</svg>
